<svg id="windows-mask" xmlns="http://www.w3.org/2000/svg" viewBox="0 0 640 447.05"><title>avery_window_mask</title><rect x="495.57" y="346.35" width="9.41" height="22.63"/><rect x="82.61" y="327.01" width="9.41" height="17.59"/><rect x="95.69" y="327.01" width="9.41" height="17.59"/><rect x="95.69" y="346.35" width="9.41" height="22.63"/><rect x="85.28" y="268.99" width="17" height="17.24"/><rect x="85.28" y="251.75" width="17" height="15.56"/><rect x="78.17" y="193.84" width="14.25" height="11.24"/><rect x="78.17" y="206.36" width="14.25" height="12.52"/><rect x="78.17" y="170.42" width="14.25" height="12.52"/><rect x="78.17" y="157.91" width="14.25" height="11.24"/><rect x="495.57" y="327.01" width="9.41" height="17.59"/><rect x="97.66" y="157.91" width="14.25" height="11.24"/><rect x="97.66" y="170.42" width="14.25" height="12.52"/><rect x="97.66" y="193.84" width="14.25" height="11.24"/><rect x="97.66" y="206.36" width="14.25" height="12.52"/><rect x="132.57" y="170.42" width="14.25" height="12.52"/><rect x="132.57" y="157.91" width="14.25" height="11.24"/><rect x="152.05" y="157.91" width="14.25" height="11.24"/><rect x="152.05" y="170.42" width="14.25" height="12.52"/><rect x="132.57" y="193.84" width="14.25" height="11.24"/><rect x="152.05" y="193.84" width="14.25" height="11.24"/><rect x="152.05" y="206.36" width="14.25" height="12.52"/><rect x="132.57" y="206.36" width="14.25" height="12.52"/><rect x="140.49" y="251.75" width="17" height="15.56"/><rect x="140.49" y="268.99" width="17" height="17.24"/><rect x="137.81" y="327.01" width="9.41" height="17.59"/><rect x="150.9" y="327.01" width="9.41" height="17.59"/><rect x="150.9" y="346.35" width="9.41" height="22.63"/><rect x="137.81" y="346.35" width="9.41" height="22.63"/><rect x="192.18" y="346.35" width="9.41" height="22.63"/><rect x="192.18" y="327.01" width="9.41" height="17.59"/><rect x="205.26" y="327.01" width="9.41" height="17.59"/><rect x="205.26" y="346.35" width="9.41" height="22.63"/><rect x="194.86" y="268.99" width="17" height="17.24"/><rect x="194.86" y="251.75" width="17" height="15.56"/><rect x="186.75" y="193.84" width="14.25" height="11.24"/><rect x="186.75" y="157.91" width="14.25" height="11.24"/><rect x="186.75" y="170.42" width="14.25" height="12.52"/><rect x="206.24" y="157.91" width="14.25" height="11.24"/><rect x="206.24" y="170.42" width="14.25" height="12.52"/><rect x="206.24" y="193.84" width="14.25" height="11.24"/><rect x="206.24" y="206.36" width="14.25" height="12.52"/><rect x="186.75" y="206.36" width="14.25" height="12.52"/><rect x="252.24" y="157.91" width="12.67" height="11.24"/><rect x="252.24" y="170.42" width="12.67" height="12.52"/><rect x="270.06" y="170.42" width="12.67" height="12.52"/><rect x="270.06" y="157.91" width="12.67" height="11.24"/><rect x="270.06" y="193.84" width="12.67" height="11.24"/><rect x="252.24" y="193.84" width="12.67" height="11.24"/><rect x="252.24" y="206.36" width="12.67" height="12.52"/><rect x="270.06" y="206.36" width="12.67" height="12.52"/><rect x="303.45" y="170.42" width="14.25" height="12.52"/><rect x="303.45" y="157.91" width="14.25" height="11.24"/><rect x="322.93" y="157.91" width="14.25" height="11.24"/><rect x="322.93" y="170.42" width="14.25" height="12.52"/><rect x="303.45" y="193.84" width="14.25" height="11.24"/><rect x="322.93" y="193.84" width="14.25" height="11.24"/><rect x="322.93" y="206.36" width="14.25" height="12.52"/><rect x="303.45" y="206.36" width="14.25" height="12.52"/><rect x="258.81" y="251.75" width="17" height="15.56"/><rect x="258.81" y="268.99" width="17" height="17.24"/><rect x="312.01" y="268.99" width="17" height="17.24"/><rect x="312.01" y="251.75" width="17" height="15.56"/><rect x="364.9" y="251.75" width="17" height="15.56"/><rect x="364.9" y="268.99" width="17" height="17.24"/><rect x="357.38" y="206.36" width="12.67" height="12.52"/><rect x="357.38" y="193.84" width="12.67" height="11.24"/><rect x="375.21" y="206.36" width="12.67" height="12.52"/><rect x="375.21" y="193.84" width="12.67" height="11.24"/><rect x="357.38" y="170.42" width="12.67" height="12.52"/><rect x="357.38" y="157.91" width="12.67" height="11.24"/><rect x="375.21" y="157.91" width="12.67" height="11.24"/><rect x="375.21" y="170.42" width="12.67" height="12.52"/><rect x="420.44" y="170.42" width="14.25" height="12.52"/><rect x="420.44" y="157.91" width="14.25" height="11.24"/><rect x="439.92" y="157.91" width="14.25" height="11.24"/><rect x="439.92" y="170.42" width="14.25" height="12.52"/><rect x="420.44" y="193.84" width="14.25" height="11.24"/><rect x="420.44" y="206.36" width="14.25" height="12.52"/><rect x="439.92" y="206.36" width="14.25" height="12.52"/><rect x="439.92" y="193.84" width="14.25" height="11.24"/><rect x="476.28" y="170.42" width="14.25" height="12.52"/><rect x="476.28" y="157.91" width="14.25" height="11.24"/><rect x="495.77" y="157.91" width="14.25" height="11.24"/><rect x="495.77" y="170.42" width="14.25" height="12.52"/><rect x="530.17" y="170.42" width="14.25" height="12.52"/><rect x="530.17" y="157.91" width="14.25" height="11.24"/><rect x="549.66" y="157.91" width="14.25" height="11.24"/><rect x="549.66" y="170.42" width="14.25" height="12.52"/><rect x="549.66" y="193.84" width="14.25" height="11.24"/><rect x="530.17" y="193.84" width="14.25" height="11.24"/><rect x="530.17" y="206.36" width="14.25" height="12.52"/><rect x="549.66" y="206.36" width="14.25" height="12.52"/><rect x="495.77" y="206.36" width="14.25" height="12.52"/><rect x="495.77" y="193.84" width="14.25" height="11.24"/><rect x="476.28" y="193.84" width="14.25" height="11.24"/><rect x="476.28" y="206.36" width="14.25" height="12.52"/><rect x="429.37" y="251.75" width="17" height="15.56"/><rect x="429.37" y="268.99" width="17" height="17.24"/><rect x="485.16" y="268.99" width="17" height="17.24"/><rect x="485.16" y="251.75" width="17" height="15.56"/><rect x="538.64" y="251.75" width="17" height="15.56"/><rect x="538.64" y="268.99" width="17" height="17.24"/><rect x="549.05" y="346.35" width="9.41" height="22.63"/><rect x="549.05" y="327.01" width="9.41" height="17.59"/><rect x="535.97" y="327.01" width="9.41" height="17.59"/><rect x="535.97" y="346.35" width="9.41" height="22.63"/><rect x="439.78" y="327.01" width="9.41" height="17.59"/><rect x="439.78" y="346.35" width="9.41" height="22.63"/><rect x="426.69" y="346.35" width="9.41" height="22.63"/><rect x="426.69" y="327.01" width="9.41" height="17.59"/><rect x="363.1" y="339.06" width="20.18" height="28.52"/><rect x="257.01" y="339.06" width="20.18" height="28.52"/><path d="M98.22,323.59a4.36,4.36,0,0,0-.33-1.67,4.27,4.27,0,0,0-1-1.42,4.38,4.38,0,0,0-7.47,3.09h-10a14.41,14.41,0,0,1,28.82,0Z"/><path d="M153.43,323.59a4.36,4.36,0,0,0-.33-1.67,4.27,4.27,0,0,0-.95-1.42,4.38,4.38,0,0,0-7.47,3.09h-10a14.41,14.41,0,0,1,28.82,0Z"/><path d="M207.8,323.59a4.36,4.36,0,0,0-.33-1.67,4.43,4.43,0,0,0-.95-1.42,4.38,4.38,0,0,0-7.47,3.09H189a14.42,14.42,0,0,1,28.83,0Z"/><path d="M271.75,323.59a4.36,4.36,0,0,0-.33-1.67,4.27,4.27,0,0,0-.95-1.42,4.38,4.38,0,0,0-7.47,3.09H253a14.41,14.41,0,0,1,28.82,0Z"/><path d="M325,324.44a4.36,4.36,0,0,0-.33-1.67,4.27,4.27,0,0,0-.95-1.42,4.38,4.38,0,0,0-7.47,3.09H303.78a16.8,16.8,0,0,1,33.59,0Z"/><path d="M377.84,323.59a4.36,4.36,0,0,0-.33-1.67,4.27,4.27,0,0,0-.95-1.42,4.38,4.38,0,0,0-7.47,3.09h-10a14.41,14.41,0,0,1,28.82,0Z"/><path d="M442.31,323.59a4.36,4.36,0,0,0-.33-1.67,4.27,4.27,0,0,0-1-1.42,4.38,4.38,0,0,0-7.47,3.09h-10a14.41,14.41,0,0,1,28.82,0Z"/><path d="M551.58,323.59a4.36,4.36,0,0,0-.33-1.67,4.27,4.27,0,0,0-1-1.42,4.38,4.38,0,0,0-7.47,3.09h-10a14.41,14.41,0,0,1,28.82,0Z"/><path d="M498.1,323.59a4.36,4.36,0,0,0-.33-1.67,4.27,4.27,0,0,0-.95-1.42,4.38,4.38,0,0,0-7.47,3.09h-10a14.41,14.41,0,0,1,28.82,0Z"/><rect x="482.49" y="346.35" width="9.41" height="22.63"/><rect x="482.49" y="327.01" width="9.41" height="17.59"/><rect x="82.61" y="346.35" width="9.41" height="22.63"/></svg>