<svg xmlns="http://www.w3.org/2000/svg" viewBox="0 0 640 447.05"><title>avery_elevation</title><g id="windows-mask"><path d="M593,146.72a3.89,3.89,0,0,1,2.42-.88v-3.16h5.73q.76-2.37,1.51-4.72c-.5-1-1-2-1.51-2.94v-7.26H580.46L488.54,82.4H154.2L62,127.76H39.55V135c-.5,1-1,2-1.51,2.94q.76,2.35,1.51,4.72h5.74v3.16a4.16,4.16,0,0,1,3.76,3.07v2.82a1.52,1.52,0,0,0-1.08.36,1.5,1.5,0,0,0-.17,2.09,1.45,1.45,0,0,0,1,.52v67.06H43.05V224h2.54l2.61,3.28v3.37H46.9l1.3,2.14V242H45.67l1.95,5.82V371.62H45.44v1.45h1.77v5.18h-1v1.88H42.88a1.5,1.5,0,0,0-1,.43,1.46,1.46,0,0,0,1,2.49H43v5.06H598.19v-5.06h.14a1.46,1.46,0,0,0,0-2.92H595v-1.88h-1v-5.18h1.76v-1.45h-2.71V247.83l2-5.82h-2.52v-9.27l1.3-2.14h-1.3v-3.37l2.61-3.28h2.54v-2.19h-5.76V154.7a1.49,1.49,0,0,0,1-.52,1.51,1.51,0,0,0,.34-1.08,1.47,1.47,0,0,0-.52-1,1.5,1.5,0,0,0-1.07-.36v-2.82A3.88,3.88,0,0,1,593,146.72Zm-62.8,11.19h14.25v11.23H530.17Zm8.47,109.41V251.75h17v15.57Zm17,1.67v17.24h-17V269Zm-25.47-98.57h14.25v12.52H530.17Zm0,23.42h14.25v11.24H530.17Zm-53.89-35.93h14.25v11.23H476.28Zm8.88,109.41V251.75h17v15.57Zm17,1.67v17.24h-17V269Zm-25.88-98.57h14.25v12.52H476.28Zm0,23.42h14.25v11.24H476.28Zm-55.84-35.93h14.25v11.23H420.44Zm8.93,109.41V251.75h17v15.57Zm17,1.67v17.24h-17V269Zm-25.93-98.57h14.25v12.52H420.44Zm0,23.42h14.25v11.24H420.44Zm-63.06-35.93h12.67v11.23H357.38Zm7.52,109.41V251.75h17v15.57Zm17,1.67v17.24h-17V269Zm-24.52-98.57h12.67v12.52H357.38Zm0,23.42h12.67v11.24H357.38Zm-34.45-35.93h14.25v11.23H322.93Zm0,12.51h14.25v12.52H322.93Zm0,23.42h14.25v11.24H322.93Zm0,12.52h14.25v12.51H322.93Zm-10.92,61V251.75h17v15.57ZM329,269v17.24H312V269ZM303.45,157.91H317.7v11.23H303.45Zm0,12.51H317.7v12.52H303.45Zm0,23.42H317.7v11.24H303.45Zm-51.21-35.93h12.67v11.23H252.24Zm6.57,109.41V251.75h17v15.57Zm17,1.67v17.24h-17V269Zm-23.57-98.57h12.67v12.52H252.24Zm0,23.42h12.67v11.24H252.24Zm-65.49-35.93H201v11.23H186.75Zm8.11,109.41V251.75h17v15.57Zm17,1.67v17.24h-17V269Zm-25.11-98.57H201v12.52H186.75Zm0,23.42H201v11.24H186.75Zm-54.18-35.93h14.25v11.23H132.57Zm7.92,109.41V251.75h17v15.57Zm17,1.67v17.24h-17V269Zm-24.92-98.57h14.25v12.52H132.57Zm0,23.42h14.25v11.24H132.57Zm-54.4-35.93H92.42v11.23H78.17Zm7.11,109.41V251.75h17v15.57Zm17,1.67v17.24h-17V269ZM78.17,170.42H92.42v12.52H78.17Zm0,23.42H92.42v11.24H78.17Zm0,12.52H92.42v12.51H78.17ZM92,369h-9.4V346.35H92Zm0-24.38h-9.4V327H92ZM105.09,369h-9.4V346.35h9.4Zm0-24.38h-9.4V327h9.4Zm-6.87-21a4.36,4.36,0,0,0-.33-1.67,4.27,4.27,0,0,0-1-1.42,4.38,4.38,0,0,0-7.47,3.09h-10a14.41,14.41,0,0,1,28.82,0Zm13.69-104.72H97.66V206.36h14.25Zm0-13.79H97.66V193.84h14.25Zm0-22.14H97.66V170.42h14.25Zm0-13.8H97.66V157.91h14.25Zm20.66,37.22h14.25v12.51H132.57ZM147.22,369h-9.41V346.35h9.41Zm0-24.38h-9.41V327h9.41ZM160.3,369h-9.4V346.35h9.4Zm0-24.38h-9.4V327h9.4Zm-6.87-21a4.36,4.36,0,0,0-.33-1.67,4.27,4.27,0,0,0-.95-1.42,4.38,4.38,0,0,0-7.47,3.09h-10a14.41,14.41,0,0,1,28.82,0ZM166.3,218.87H152.05V206.36H166.3Zm0-13.79H152.05V193.84H166.3Zm0-22.14H152.05V170.42H166.3Zm0-13.8H152.05V157.91H166.3Zm20.45,37.22H201v12.51H186.75ZM201.59,369h-9.41V346.35h9.41Zm0-24.38h-9.41V327h9.41ZM214.67,369h-9.41V346.35h9.41Zm0-24.38h-9.41V327h9.41Zm-6.87-21a4.36,4.36,0,0,0-.33-1.67,4.43,4.43,0,0,0-.95-1.42,4.38,4.38,0,0,0-7.47,3.09H189a14.42,14.42,0,0,1,28.83,0Zm12.69-104.72H206.24V206.36h14.25Zm0-13.79H206.24V193.84h14.25Zm0-22.14H206.24V170.42h14.25Zm0-13.8H206.24V157.91h14.25Zm31.75,37.22h12.67v12.51H252.24Zm24.94,161.22H257V339.06h20.17Zm-5.43-44a4.36,4.36,0,0,0-.33-1.67,4.27,4.27,0,0,0-.95-1.42,4.38,4.38,0,0,0-7.47,3.09H253a14.41,14.41,0,0,1,28.82,0Zm11-104.72H270.07V206.36h12.67Zm0-13.79H270.07V193.84h12.67Zm0-22.14H270.07V170.42h12.67Zm0-13.8H270.07V157.91h12.67Zm20.71,37.22H317.7v12.51H303.45ZM325,324.44a4.36,4.36,0,0,0-.33-1.67,4.27,4.27,0,0,0-.95-1.42,4.38,4.38,0,0,0-7.47,3.09H303.78a16.8,16.8,0,0,1,33.59,0Zm32.43-118.08h12.67v12.51H357.38Zm25.89,161.22H363.1V339.06h20.17Zm-5.43-44a4.36,4.36,0,0,0-.33-1.67,4.27,4.27,0,0,0-.95-1.42,4.38,4.38,0,0,0-7.47,3.09h-10a14.41,14.41,0,0,1,28.82,0Zm10-104.72H375.21V206.36h12.67Zm0-13.79H375.21V193.84h12.67Zm0-22.14H375.21V170.42h12.67Zm0-13.8H375.21V157.91h12.67Zm32.56,37.22h14.25v12.51H420.44ZM436.1,369h-9.41V346.35h9.41Zm0-24.38h-9.41V327h9.41ZM449.18,369h-9.4V346.35h9.4Zm0-24.38h-9.4V327h9.4Zm-6.87-21a4.36,4.36,0,0,0-.33-1.67,4.27,4.27,0,0,0-1-1.42,4.38,4.38,0,0,0-7.47,3.09h-10a14.41,14.41,0,0,1,28.82,0Zm11.86-104.72H439.92V206.36h14.25Zm0-13.79H439.92V193.84h14.25Zm0-22.14H439.92V170.42h14.25Zm0-13.8H439.92V157.91h14.25Zm22.11,37.22h14.25v12.51H476.28ZM491.89,369h-9.4V346.35h9.4Zm0-24.38h-9.4V327h9.4ZM505,369h-9.4V346.35H505Zm0-24.38h-9.4V327H505Zm-6.87-21a4.36,4.36,0,0,0-.33-1.67,4.27,4.27,0,0,0-.95-1.42,4.38,4.38,0,0,0-7.47,3.09h-10a14.41,14.41,0,0,1,28.82,0ZM510,218.87H495.77V206.36H510Zm0-13.79H495.77V193.84H510Zm0-22.14H495.77V170.42H510Zm0-13.8H495.77V157.91H510Zm20.15,37.22h14.25v12.51H530.17ZM545.37,369H536V346.35h9.4Zm0-24.38H536V327h9.4ZM558.45,369h-9.4V346.35h9.4Zm0-24.38h-9.4V327h9.4Zm-6.87-21a4.36,4.36,0,0,0-.33-1.67,4.27,4.27,0,0,0-1-1.42,4.38,4.38,0,0,0-7.47,3.09h-10a14.41,14.41,0,0,1,28.82,0Zm12.33-104.72H549.66V206.36h14.25Zm0-13.79H549.66V193.84h14.25Zm0-22.14H549.66V170.42h14.25Zm0-13.8H549.66V157.91h14.25Z"/></g></svg>